<svg width="122" height="17" viewBox="0 0 122 17" fill="none" xmlns="http://www.w3.org/2000/svg">
<path d="M12.9128 10.8861L11.9154 12.8442H11.8322C11.666 12.4027 11.3612 11.7308 10.8625 10.9245L5.51529 1.61395H0.27887V16.4532H3.74211V7.29626C3.74211 6.72035 3.74211 6.06766 3.7144 5.26138C3.6867 4.85824 3.63129 4.55109 3.60358 4.32073H3.68669C3.85293 4.89664 4.04687 5.31897 4.1854 5.58773L10.6132 16.4148H13.0513L19.4237 5.49174C19.5622 5.24218 19.7007 4.74306 19.8392 4.32073H19.9224C19.8392 5.41496 19.7838 6.394 19.7561 6.98911V16.3957H23.441V1.57555H18.3985L12.9128 10.8861ZM26.932 5.7605H30.5337V16.3957H26.932V5.7605ZM28.7606 1.2684C28.151 1.2684 27.6523 1.42198 27.2367 1.69074C26.8211 1.95949 26.5995 2.30504 26.5995 2.72737C26.5995 3.13051 26.8211 3.47606 27.2367 3.74482C27.6523 4.01357 28.151 4.14795 28.7606 4.14795C29.3701 4.14795 29.8965 3.99438 30.2844 3.74482C30.7 3.47606 30.9216 3.13051 30.9216 2.72737C30.9216 2.32424 30.7 1.97869 30.2844 1.69074C29.9242 1.42198 29.3978 1.2684 28.7606 1.2684ZM43.3062 5.66452C42.6412 5.56853 41.9486 5.51094 41.2836 5.51094C39.649 5.51094 38.1529 5.7605 36.9061 6.25963C35.6593 6.75875 34.6619 7.44984 34.0247 8.31371C33.3597 9.19677 33.0273 10.2142 33.0273 11.3852C33.0273 12.4027 33.3597 13.3049 33.997 14.1304C34.6342 14.9367 35.5208 15.5894 36.7122 16.0309C37.8481 16.4724 39.178 16.7028 40.6741 16.7028C42.3919 16.7028 43.8603 16.4532 45.0239 15.9925L45.0516 15.9733V13.6697L44.9131 13.7465C44.3867 14.0152 43.7772 14.2456 43.1676 14.38C42.5304 14.5335 41.9486 14.6103 41.4499 14.6103C40.0092 14.6103 38.8732 14.3224 38.0697 13.6889C37.2386 13.0746 36.823 12.2299 36.823 11.1741C36.823 10.0798 37.2386 9.21597 38.0975 8.58246C38.9563 7.94896 40.0923 7.62261 41.4776 7.62261C42.6412 7.62261 43.8326 7.89137 44.9131 8.42889L45.0516 8.50568V6.06766L45.0239 6.04846C44.5529 5.91408 44.0265 5.7605 43.3062 5.66452ZM55.192 5.58773C54.3054 5.58773 53.4742 5.7797 52.7539 6.18284C52.1443 6.52838 51.7288 7.02751 51.3686 7.62261H51.3409V5.7605H47.7391V16.3957H51.3409V10.9629C51.3409 10.0414 51.6179 9.27356 52.2275 8.71684C52.837 8.14093 53.6128 7.85298 54.5548 7.85298C54.8872 7.85298 55.2197 7.91057 55.6353 7.94896C56.0232 8.02575 56.3002 8.10254 56.4942 8.19852L56.6327 8.27531V5.7797L56.5496 5.7605C56.3002 5.64532 55.8015 5.58773 55.192 5.58773ZM64.9999 5.53014C62.4787 5.53014 60.4561 6.04846 59.0431 7.0659C57.6024 8.08334 56.9098 9.48472 56.9098 11.2508C56.9098 12.9018 57.6301 14.2456 59.0154 15.2246C60.4007 16.1845 62.2847 16.6836 64.6397 16.6836C67.1055 16.6836 69.0727 16.1653 70.4857 15.1286C71.9264 14.092 72.619 12.7098 72.619 11.0013C72.619 9.31195 71.9541 7.96816 70.5965 6.98911C69.2943 6.01006 67.3826 5.53014 64.9999 5.53014ZM67.8813 13.7081C67.2164 14.3032 66.1636 14.5911 64.8614 14.5911C63.5592 14.5911 62.5064 14.3032 61.7583 13.6697C61.0102 13.0746 60.6501 12.2107 60.6501 11.1165C60.6501 9.98385 61.0379 9.11998 61.7583 8.50568C62.5064 7.89137 63.5315 7.58422 64.8337 7.58422C66.1081 7.58422 67.1055 7.87217 67.8259 8.46728C68.5462 9.06239 68.9341 9.92626 68.9341 11.0589C68.8787 12.2107 68.574 13.113 67.8813 13.7081ZM80.6537 10.1758C79.5178 9.84947 78.7974 9.59991 78.465 9.38874C78.1879 9.19677 78.0494 8.92801 78.0494 8.58246C78.0494 8.29451 78.2156 8.00655 78.6312 7.81458C79.0468 7.62261 79.5178 7.52663 80.2104 7.52663C80.82 7.52663 81.4572 7.60342 82.0667 7.7186C82.6763 7.83378 83.2304 8.00655 83.6737 8.23692L83.8122 8.31371V5.97167L83.7291 5.95247C83.3135 5.83729 82.7594 5.72211 82.0944 5.62612C81.4295 5.54934 80.82 5.51094 80.3213 5.51094C78.6035 5.51094 77.1905 5.7989 76.0823 6.4324C74.974 7.02751 74.4476 7.83378 74.4476 8.77443C74.4476 9.27356 74.5584 9.71509 74.8078 10.0798C75.0571 10.4446 75.4173 10.7901 75.916 11.0781C76.4147 11.3468 77.1351 11.654 78.1325 11.9419C78.9637 12.1915 79.6009 12.3835 79.9888 12.5371C80.3767 12.6906 80.626 12.8634 80.82 12.9978C80.9585 13.1514 81.0416 13.3433 81.0416 13.5929C81.0416 14.3032 80.2659 14.6487 78.6866 14.6487C78.0771 14.6487 77.4398 14.5719 76.6918 14.3992C75.9437 14.2264 75.2511 13.9768 74.6693 13.6889L74.5307 13.6121V16.0501L74.6138 16.0693C75.1403 16.2421 75.7775 16.3573 76.5533 16.4916C77.329 16.5876 78.0217 16.6644 78.6312 16.6644C80.4875 16.6644 82.0113 16.3765 83.0919 15.743C84.2001 15.1286 84.7819 14.3416 84.7819 13.3241C84.7819 12.6138 84.5049 11.9803 83.8953 11.5004C83.0919 11.0397 82.0945 10.5598 80.6537 10.1758ZM94.285 5.53014C91.7638 5.53014 89.7413 6.04846 88.3283 7.0659C86.9153 8.08334 86.1949 9.48472 86.1949 11.2508C86.1949 12.9018 86.9153 14.2456 88.3006 15.2246C89.6859 16.1845 91.5699 16.6836 93.9249 16.6836C96.3907 16.6836 98.3578 16.1653 99.7708 15.1286C101.212 14.092 101.904 12.7098 101.904 11.0013C101.904 9.31195 101.239 7.96816 99.8816 6.98911C98.5795 6.01006 96.6678 5.53014 94.285 5.53014ZM97.1388 13.7081C96.4738 14.3032 95.421 14.5911 94.1188 14.5911C92.7889 14.5911 91.7638 14.3032 91.0158 13.6697C90.2677 13.0746 89.9075 12.2107 89.9075 11.1165C89.9075 9.98385 90.2954 9.11998 91.0158 8.50568C91.7638 7.89137 92.7889 7.58422 94.0911 7.58422C95.3379 7.58422 96.363 7.87217 97.0834 8.46728C97.8037 9.06239 98.1916 9.92626 98.1916 11.0589C98.1916 12.2107 97.8314 13.113 97.1388 13.7081ZM121.16 7.81458V5.7605H117.53V2.61219L117.42 2.63139L113.984 3.34168L113.901 3.36088V5.7605H108.47V4.41671C108.47 3.80241 108.692 3.32248 109.08 3.01533C109.468 2.70818 110.05 2.5546 110.77 2.5546C111.269 2.5546 111.795 2.63139 112.377 2.80416L112.516 2.86175V0.692491L112.432 0.673293C111.934 0.558111 111.269 0.481323 110.41 0.481323C109.329 0.481323 108.387 0.654096 107.528 0.942052C106.67 1.2684 106.032 1.70993 105.561 2.30504C105.09 2.88095 104.841 3.53365 104.841 4.28233V5.7605H102.32V7.79539H104.841V16.3957H108.47V7.81458H113.901V13.2857C113.901 15.5318 115.425 16.6644 118.472 16.6644C118.971 16.6644 119.497 16.6068 119.996 16.5492C120.523 16.4724 120.91 16.3765 121.132 16.2997L121.16 16.2805V14.2264L121.021 14.3032C120.8 14.3992 120.606 14.4759 120.273 14.5335C119.996 14.5911 119.747 14.6103 119.553 14.6103C118.832 14.6103 118.334 14.4951 117.974 14.2072C117.641 13.9384 117.475 13.4969 117.475 12.8442V7.81458H121.16Z" fill="white" fill-opacity="0.6"/>
</svg>
